<?xml version="1.0" encoding="UTF-8"?>
<svg xmlns="http://www.w3.org/2000/svg" xmlns:xlink="http://www.w3.org/1999/xlink" version="1.1" id="Capa_1" x="0px" y="0px" viewBox="0 0 512 512" style="enable-background:new 0 0 512 512;" xml:space="preserve" width="512" height="512">
<g>
	<path style="fill:none;stroke:#000000;stroke-width:15;stroke-linecap:round;stroke-linejoin:round;stroke-miterlimit:10;" d="&#10;&#9;&#9;M88.866,103.132C51.995,143.42,29.5,197.083,29.5,256c0,117.67,89.73,214.38,204.5,225.44"/>
	<path style="fill:none;stroke:#000000;stroke-width:15;stroke-linecap:round;stroke-linejoin:round;stroke-miterlimit:10;" d="&#10;&#9;&#9;M234,30.56c-45.173,4.353-86.467,21.975-119.937,48.921"/>
	<path style="fill:none;stroke:#000000;stroke-width:15;stroke-linecap:round;stroke-linejoin:round;stroke-miterlimit:10;" d="&#10;&#9;&#9;M278,30.56C392.77,41.62,482.5,138.33,482.5,256S392.77,470.38,278,481.44"/>
	
		<circle style="fill:none;stroke:#000000;stroke-width:15;stroke-linecap:round;stroke-linejoin:round;stroke-miterlimit:10;" cx="256" cy="256" r="175.367"/>
	<g>
		<g>
			<path style="fill:none;stroke:#000000;stroke-width:15;stroke-linecap:round;stroke-linejoin:round;stroke-miterlimit:10;" d="&#10;&#9;&#9;&#9;&#9;M120.381,223.457v65.032c0.719,0.123,22.791,0,22.791,0"/>
		</g>
		<g>
			<path style="fill:none;stroke:#000000;stroke-width:15;stroke-linecap:round;stroke-linejoin:round;stroke-miterlimit:10;" d="&#10;&#9;&#9;&#9;&#9;M293.85,229.014c-5.194-3.509-11.455-5.558-18.195-5.558c-17.973,0-32.543,14.57-32.543,32.543s14.57,32.543,32.543,32.543&#10;&#9;&#9;&#9;&#9;s28.093-14.57,28.093-32.543h-19.47"/>
		</g>
		
			<circle style="fill:none;stroke:#000000;stroke-width:15;stroke-linecap:round;stroke-linejoin:round;stroke-miterlimit:10;" cx="187.784" cy="256" r="32.543"/>
		
			<circle style="fill:none;stroke:#000000;stroke-width:15;stroke-linecap:round;stroke-linejoin:round;stroke-miterlimit:10;" cx="359.076" cy="256" r="32.543"/>
	</g>
	<g>
		
			<line style="fill:none;stroke:#000000;stroke-width:15;stroke-linecap:round;stroke-linejoin:round;stroke-miterlimit:10;" x1="460.5" y1="29.5" x2="278" y2="29.5"/>
		
			<line style="fill:none;stroke:#000000;stroke-width:15;stroke-linecap:round;stroke-linejoin:round;stroke-miterlimit:10;" x1="234" y1="29.5" x2="51.5" y2="29.5"/>
		<path style="fill:none;stroke:#000000;stroke-width:15;stroke-linecap:round;stroke-linejoin:round;stroke-miterlimit:10;" d="&#10;&#9;&#9;&#9;M7.5,29.5L7.5,29.5c0-12.15,9.85-22,22-22h0c12.15,0,22,9.85,22,22v0c0,12.15-9.85,22-22,22h0C17.35,51.5,7.5,41.65,7.5,29.5z"/>
		<path style="fill:none;stroke:#000000;stroke-width:15;stroke-linecap:round;stroke-linejoin:round;stroke-miterlimit:10;" d="&#10;&#9;&#9;&#9;M460.5,29.5L460.5,29.5c0-12.15,9.85-22,22-22h0c12.15,0,22,9.85,22,22v0c0,12.15-9.85,22-22,22h0&#10;&#9;&#9;&#9;C470.35,51.5,460.5,41.65,460.5,29.5z"/>
		<path style="fill:none;stroke:#000000;stroke-width:15;stroke-linecap:round;stroke-linejoin:round;stroke-miterlimit:10;" d="&#10;&#9;&#9;&#9;M234,46.5v-34c0-2.761,2.239-5,5-5h34c2.761,0,5,2.239,5,5v34c0,2.761-2.239,5-5,5h-34C236.239,51.5,234,49.261,234,46.5z"/>
	</g>
	<g>
		
			<line style="fill:none;stroke:#000000;stroke-width:15;stroke-linecap:round;stroke-linejoin:round;stroke-miterlimit:10;" x1="374.795" y1="482.5" x2="278" y2="482.5"/>
		
			<line style="fill:none;stroke:#000000;stroke-width:15;stroke-linecap:round;stroke-linejoin:round;stroke-miterlimit:10;" x1="460.5" y1="482.5" x2="409.795" y2="482.5"/>
		
			<line style="fill:none;stroke:#000000;stroke-width:15;stroke-linecap:round;stroke-linejoin:round;stroke-miterlimit:10;" x1="234" y1="482.5" x2="51.5" y2="482.5"/>
		<path style="fill:none;stroke:#000000;stroke-width:15;stroke-linecap:round;stroke-linejoin:round;stroke-miterlimit:10;" d="&#10;&#9;&#9;&#9;M7.5,482.5L7.5,482.5c0-12.15,9.85-22,22-22h0c12.15,0,22,9.85,22,22v0c0,12.15-9.85,22-22,22h0C17.35,504.5,7.5,494.65,7.5,482.5&#10;&#9;&#9;&#9;z"/>
		<path style="fill:none;stroke:#000000;stroke-width:15;stroke-linecap:round;stroke-linejoin:round;stroke-miterlimit:10;" d="&#10;&#9;&#9;&#9;M460.5,482.5L460.5,482.5c0-12.15,9.85-22,22-22h0c12.15,0,22,9.85,22,22v0c0,12.15-9.85,22-22,22h0&#10;&#9;&#9;&#9;C470.35,504.5,460.5,494.65,460.5,482.5z"/>
		<path style="fill:none;stroke:#000000;stroke-width:15;stroke-linecap:round;stroke-linejoin:round;stroke-miterlimit:10;" d="&#10;&#9;&#9;&#9;M234,499.5v-34c0-2.761,2.239-5,5-5h34c2.761,0,5,2.239,5,5v34c0,2.761-2.239,5-5,5h-34C236.239,504.5,234,502.261,234,499.5z"/>
	</g>
</g>















</svg>
